<svg xmlns:xlink="http://www.w3.org/1999/xlink" xmlns="http://www.w3.org/2000/svg" width="24" height="24" viewBox="0 0 24 24" fill="none"><path d="M17 18.375H7.35116C7.20479 18.375 7.06306 18.3236 6.95069 18.2298C6.83831 18.1361 6.76242 18.0058 6.73623 17.8618L4.65013 6.3882C4.62394 6.24419 4.54805 6.11394 4.43568 6.02016C4.3233 5.92637 4.18158 5.875 4.03521 5.875H2.625" stroke="#333333" stroke-width="1.2px" stroke-linecap="round" stroke-linejoin="round" fill="none"></path><path d="M7.625 21.5C8.48794 21.5 9.1875 20.8004 9.1875 19.9375C9.1875 19.0746 8.48794 18.375 7.625 18.375C6.76206 18.375 6.0625 19.0746 6.0625 19.9375C6.0625 20.8004 6.76206 21.5 7.625 21.5Z" stroke="#333333" stroke-width="1.2px" stroke-linecap="round" stroke-linejoin="round" fill="none"></path><path d="M17 21.5C17.8629 21.5 18.5625 20.8004 18.5625 19.9375C18.5625 19.0746 17.8629 18.375 17 18.375C16.1371 18.375 15.4375 19.0746 15.4375 19.9375C15.4375 20.8004 16.1371 21.5 17 21.5Z" stroke="#333333" stroke-width="1.2px" stroke-linecap="round" stroke-linejoin="round" fill="none"></path><path fill-rule="evenodd" clip-rule="evenodd" d="M4.5249 8.99999C4.5249 8.66862 4.79353 8.39999 5.1249 8.39999H13.9999C14.3313 8.39999 14.5999 8.66862 14.5999 8.99999C14.5999 9.33136 14.3313 9.59999 13.9999 9.59999H5.1249C4.79353 9.59999 4.5249 9.33136 4.5249 8.99999ZM19.1149 11.4111C19.4402 11.4747 19.6523 11.7898 19.5888 12.115L18.9327 15.4735C18.8807 15.754 18.7323 16.0076 18.5132 16.1905C18.293 16.3743 18.0152 16.475 17.7283 16.475H6.3749C6.04353 16.475 5.7749 16.2064 5.7749 15.875C5.7749 15.5436 6.04353 15.275 6.3749 15.275H17.7283C17.7342 15.275 17.7398 15.2729 17.7443 15.2692C17.7488 15.2654 17.7518 15.2602 17.7529 15.2545L17.7543 15.2468L17.7543 15.2468L18.411 11.885C18.4746 11.5597 18.7897 11.3476 19.1149 11.4111Z" fill="#333333"></path><g clip-path="url(#AddToCart_a)" fill="none"><path d="M15.25 7H20.75" stroke="#333333" stroke-width="1.2px" stroke-linecap="round" stroke-linejoin="round" fill="none"></path><path d="M18 4.25V9.75" stroke="#333333" stroke-width="1.2px" stroke-linecap="round" stroke-linejoin="round" fill="none"></path></g><defs><clipPath id="AddToCart_a"><rect width="8" height="8" fill="white" transform="translate(14 3)"></rect></clipPath></defs></svg>